<svg aria-hidden="true" style="position: absolute; width: 0; height: 0; overflow: hidden;" version="1.1" xmlns="http://www.w3.org/2000/svg" xmlns:xlink="http://www.w3.org/1999/xlink">
<defs>
<symbol id="icon-account" viewBox="0 0 32 32">
<path fill="#fff" style="fill: var(--color1, #fff)" d="M7.5 12.25c0 4.675 3.825 8.5 8.5 8.5s8.5-3.825 8.5-8.5c0-4.675-3.825-8.5-8.5-8.5s-8.5 3.825-8.5 8.5zM22.5 12.25c0 3.575-2.925 6.5-6.5 6.5s-6.5-2.925-6.5-6.5c0-3.575 2.925-6.5 6.5-6.5s6.5 2.925 6.5 6.5z"></path>
<path fill="#fff" style="fill: var(--color1, #fff)" d="M6.1 29.85c2.65-2.65 6.15-4.1 9.9-4.1s7.25 1.45 9.9 4.1l1.425-1.425c-3.025-3-7.050-4.675-11.325-4.675s-8.3 1.675-11.325 4.675l1.425 1.425z"></path>
</symbol>
<symbol id="icon-hamburger" viewBox="0 0 24 24">
<path fill="#fff" style="fill: var(--color1, #fff)" d="M4,6.75l16,0c0.414,0 0.75,-0.336 0.75,-0.75c0,-0.414 -0.336,-0.75 -0.75,-0.75l-16,0c-0.414,0 -0.75,0.336 -0.75,0.75c0,0.414 0.336,0.75 0.75,0.75Z"/>
<path fill="#fff" style="fill: var(--color1, #fff)" d="M4,12.75l16,0c0.414,0 0.75,-0.336 0.75,-0.75c0,-0.414 -0.336,-0.75 -0.75,-0.75l-16,0c-0.414,0 -0.75,0.336 -0.75,0.75c0,0.414 0.336,0.75 0.75,0.75Z"/>
<path fill="#fff" style="fill: var(--color1, #fff)" d="M4,18.75l16,0c0.414,0 0.75,-0.336 0.75,-0.75c0,-0.414 -0.336,-0.75 -0.75,-0.75l-16,0c-0.414,0 -0.75,0.336 -0.75,0.75c0,0.414 0.336,0.75 0.75,0.75Z"/>
</symbol>
<symbol id="icon-settings" viewBox="0 0 32 32">
<path fill="#fff" style="fill: var(--color1, #fff)" d="M31.797 13.573c-0.076-0.5-0.421-0.917-0.896-1.086l-2.521-0.896c-0.149-0.422-0.318-0.833-0.506-1.23l1.147-2.414c0.216-0.455 0.165-0.994-0.134-1.401-0.967-1.315-2.122-2.47-3.434-3.433-0.407-0.299-0.944-0.35-1.4-0.133l-2.413 1.146c-0.397-0.188-0.808-0.356-1.231-0.505l-0.897-2.521c-0.169-0.475-0.585-0.819-1.084-0.895-1.772-0.272-3.084-0.272-4.859 0-0.498 0.077-0.915 0.421-1.084 0.895l-0.897 2.521c-0.423 0.149-0.834 0.318-1.231 0.505l-2.414-1.146c-0.455-0.217-0.993-0.166-1.4 0.133-1.312 0.962-2.467 2.118-3.434 3.433-0.299 0.407-0.35 0.945-0.134 1.401l1.147 2.414c-0.188 0.396-0.356 0.808-0.506 1.23l-2.521 0.897c-0.475 0.169-0.82 0.586-0.896 1.085-0.138 0.903-0.202 1.674-0.202 2.428 0 0.753 0.064 1.524 0.202 2.428 0.076 0.5 0.421 0.917 0.896 1.086l2.521 0.896c0.15 0.423 0.319 0.834 0.506 1.231l-1.147 2.413c-0.217 0.455-0.165 0.994 0.134 1.4 0.966 1.314 2.121 2.47 3.434 3.434 0.407 0.299 0.945 0.351 1.4 0.133l2.413-1.146c0.397 0.188 0.808 0.356 1.231 0.505l0.897 2.521c0.169 0.475 0.585 0.819 1.083 0.895 0.887 0.137 1.681 0.203 2.429 0.203s1.543-0.066 2.429-0.203c0.499-0.077 0.915-0.421 1.084-0.895l0.897-2.521c0.423-0.149 0.834-0.318 1.231-0.505l2.413 1.146c0.456 0.218 0.994 0.166 1.401-0.133 1.315-0.966 2.47-2.121 3.434-3.434 0.299-0.406 0.35-0.945 0.134-1.4l-1.147-2.413c0.188-0.397 0.357-0.809 0.506-1.231l2.521-0.896c0.476-0.169 0.82-0.586 0.896-1.086 0.137-0.904 0.202-1.675 0.202-2.428s-0.064-1.524-0.202-2.428zM29.19 17.211l-2.365 0.841c-0.413 0.146-0.731 0.482-0.856 0.904-0.211 0.714-0.489 1.39-0.827 2.010-0.21 0.386-0.223 0.848-0.034 1.245l1.073 2.256c-0.518 0.622-1.091 1.196-1.715 1.714l-2.256-1.071c-0.397-0.19-0.858-0.175-1.244 0.034-0.621 0.338-1.297 0.615-2.011 0.827-0.421 0.124-0.756 0.442-0.903 0.855l-0.841 2.366c-0.859 0.087-1.562 0.087-2.42 0l-0.841-2.366c-0.147-0.412-0.483-0.731-0.903-0.855-0.715-0.212-1.392-0.489-2.011-0.827-0.386-0.211-0.848-0.224-1.244-0.034l-2.256 1.072c-0.623-0.519-1.196-1.092-1.715-1.715l1.073-2.256c0.188-0.396 0.175-0.859-0.034-1.245-0.337-0.618-0.615-1.294-0.827-2.011-0.125-0.421-0.443-0.756-0.856-0.903l-2.365-0.841c-0.045-0.43-0.066-0.827-0.066-1.211s0.022-0.779 0.066-1.21l2.366-0.842c0.413-0.146 0.731-0.482 0.855-0.903 0.212-0.714 0.49-1.391 0.827-2.011 0.21-0.385 0.223-0.848 0.034-1.244l-1.073-2.256c0.519-0.623 1.092-1.197 1.715-1.715l2.257 1.072c0.395 0.19 0.859 0.175 1.244-0.034 0.619-0.338 1.295-0.615 2.011-0.827 0.421-0.124 0.756-0.443 0.903-0.855l0.841-2.366c0.851-0.088 1.555-0.088 2.42 0l0.841 2.366c0.147 0.412 0.483 0.731 0.903 0.855 0.715 0.212 1.392 0.489 2.012 0.827 0.386 0.211 0.847 0.224 1.244 0.034l2.256-1.072c0.622 0.518 1.195 1.092 1.715 1.715l-1.073 2.256c-0.188 0.396-0.175 0.859 0.034 1.244 0.338 0.622 0.616 1.298 0.827 2.011 0.125 0.421 0.442 0.757 0.856 0.903l2.365 0.841c0.045 0.43 0.066 0.827 0.066 1.211s-0.021 0.78-0.066 1.21z"></path>
<path fill="#fff" style="fill: var(--color1, #fff)" d="M16 9.33c-3.501 0-6.349 2.848-6.349 6.349s2.848 6.349 6.349 6.349c3.501 0 6.349-2.848 6.349-6.349s-2.848-6.349-6.349-6.349zM16 19.285c-1.988 0-3.606-1.618-3.606-3.606s1.618-3.606 3.606-3.606 3.606 1.618 3.606 3.606c0 1.988-1.618 3.606-3.606 3.606z"></path>
</symbol>
<symbol id="icon-cross" viewBox="0 0 32 32">
<path fill="#f5f7f5" stroke-width="2" stroke-miterlimit="4" stroke-linecap="round" stroke-linejoin="round" d="M7 7l18 18"></path>
<path fill="#f5f7f5" stroke-width="2" stroke-miterlimit="4" stroke-linecap="round" stroke-linejoin="round" d="M7 25l18-18"></path>
</symbol>
<symbol id="icon-wallet" viewBox="0 0 32 32">
<path d="M24 29h-16c-2.761 0-5-2.239-5-5v0-14c0-0.552 0.448-1 1-1v0h20c2.761 0 5 2.239 5 5v0 10c0 2.761-2.239 5-5 5v0zM5 11v13c0 1.657 1.343 3 3 3v0h16c1.657 0 3-1.343 3-3v0-10c0-1.657-1.343-3-3-3v0z"></path>
<path d="M26 11c-0.552 0-1-0.448-1-1v0-2.75c0.002-0.038 0.003-0.082 0.003-0.127 0-0.692-0.302-1.314-0.781-1.741l-0.002-0.002c-0.32-0.242-0.725-0.387-1.163-0.387-0.18 0-0.355 0.025-0.52 0.071l0.014-0.003-16.77 3.81c-0.45 0.104-0.78 0.501-0.78 0.976 0 0.009 0 0.017 0 0.026l-0-0.001c0 0.552-0.448 1-1 1s-1-0.448-1-1v0c-0-0.008-0-0.017-0-0.026 0-1.419 0.986-2.608 2.31-2.92l0.020-0.004 16.78-3.81c0.287-0.076 0.616-0.119 0.956-0.119 0.911 0 1.748 0.312 2.412 0.835l-0.008-0.006c0.94 0.801 1.532 1.986 1.532 3.309 0 0.043-0.001 0.085-0.002 0.127l0-0.006v2.75c0 0.552-0.448 1-1 1v0z"></path>
<path d="M28 23h-7c-2.209 0-4-1.791-4-4s1.791-4 4-4v0h7c0.552 0 1 0.448 1 1v0 6c0 0.552-0.448 1-1 1v0zM21 17c-1.105 0-2 0.895-2 2s0.895 2 2 2v0h6v-4z"></path>
</symbol>
<symbol id="icon-notification" viewBox="0 0 32 32">
<path fill="#fff" d="M27.080 18.893l-0.58-0.467c-0.306-0.246-0.5-0.62-0.5-1.040v-5.387c-0.002-4.835-3.434-8.868-7.996-9.796l-0.064-0.011c-0.23-0.87-1.010-1.501-1.937-1.501s-1.707 0.631-1.934 1.487l-0.003 0.014c-4.628 0.936-8.064 4.97-8.067 9.806v5.387c-0 0.42-0.194 0.794-0.497 1.038l-0.003 0.002-0.58 0.467c-1.374 1.105-2.247 2.783-2.253 4.666v1.108c0 1.473 1.194 2.667 2.667 2.667v0h5.507c0.623 2.304 2.695 3.972 5.157 3.972s4.534-1.668 5.148-3.935l0.009-0.037h5.513c1.473 0 2.667-1.194 2.667-2.667v0-1.093c-0.002-1.889-0.876-3.573-2.242-4.671l-0.012-0.009zM16 28.667c-0.976-0.006-1.826-0.535-2.287-1.321l-0.007-0.013h4.593c-0.468 0.8-1.322 1.33-2.299 1.333h-0zM26.667 24.667h-21.333v-1.093c0.002-1.049 0.488-1.985 1.247-2.595l0.006-0.005 0.58-0.467c0.917-0.739 1.499-1.861 1.5-3.12v-5.387c0-4.050 3.283-7.333 7.333-7.333s7.333 3.283 7.333 7.333v0 5.387c0 0.001 0 0.003 0 0.004 0 1.26 0.582 2.383 1.492 3.116l0.008 0.006 0.58 0.467c0.764 0.614 1.25 1.546 1.253 2.593v0.001z"></path>
</symbol>
<symbol id="icon-logo" viewBox="0 0 32 32">
<path fill="#fff" style="fill: var(--color1, #fff)" d="M31.023 25.056c0.486 0.632 0.634 1.352 0.605 2.136-0.026 0.703 0 1.408-0.006 2.111-0.007 1.528-1.127 2.674-2.659 2.689-1.673 0.016-3.346 0-5.019 0-0.069 0-0.142 0.014-0.2-0.042 0-0.79 0.010-1.581 0-2.371 0-0.181 0.050-0.218 0.222-0.217 1.588 0.006 3.177 0 4.765 0.009 0.224 0 0.272-0.067 0.267-0.276-0.012-0.712-0.009-1.424 0-2.136 0-0.177-0.052-0.227-0.227-0.224-0.735 0.009-1.472-0.020-2.206 0.009-1.668 0.061-2.887-1.24-2.817-2.796-0-0.058-0.004-0.115-0.012-0.17l0.001 0.007c0.004-0.696 0.043-1.393 0.004-2.087-0.074-1.305 0.866-2.5 2.069-2.766 0.034-0.010 0.063-0.021 0.090-0.033l-0.005 0.002c0.193-0.079 0.398-0.070 0.596-0.070 1.651 0 3.303 0 4.953-0.008 0.184 0 0.235 0.090 0.25 0.236 0.020 0.186 0.009 0.376 0.009 0.563 0 0.501 0 1.002 0 1.502 0 0.384-0.051 0.439-0.433 0.436-1.479-0.016-2.958-0.008-4.436-0.009-0.027-0.003-0.059-0.005-0.091-0.005-0.075 0-0.147 0.010-0.216 0.030l0.006-0.001c-0.023 0.015-0.044 0.032-0.062 0.050l-0 0c-0.029 0.049-0.045 0.107-0.045 0.17 0 0.020 0.002 0.039 0.005 0.058l-0-0.002q0 0.961 0 1.921c0 0.255 0.021 0.275 0.285 0.276 0.734 0 1.468-0.006 2.202-0.005 0.617 0 1.192 0.161 1.684 0.546 0.135 0.143 0.31 0.25 0.408 0.43 0.008 0.020 0.010 0.026 0.012 0.038z"></path>
<path fill="#f5f7f5" style="fill: var(--color2, #f5f7f5)" d="M6.074 18.758c0.399-0.009 0.643 0.289 0.937 0.482 0.106 0.070-0.014 0.139-0.048 0.19-0.383 0.569-0.774 1.134-1.162 1.703s-0.8 1.154-1.187 1.741c-0.104 0.158-0.18 0.162-0.312 0.049-0.106-0.091-0.229-0.162-0.341-0.244-0.357-0.255-0.417-0.592-0.17-0.956 0.318-0.463 0.64-0.923 0.96-1.386 0.066-0.071 0.118-0.156 0.149-0.251l0.001-0.005c0.204-0.301 0.414-0.596 0.611-0.903 0.138-0.215 0.304-0.376 0.561-0.42z"></path>
<path fill="#f7f8f6" style="fill: var(--color3, #f7f8f6)" d="M12.221 22.929c-0.626 1.148 0.071 2.389 1.116 2.886 0.448 0.14 0.875 0.36 1.358 0.373 0.136 0.020 0.294 0.031 0.453 0.031s0.317-0.011 0.471-0.033l-0.018 0.002c0.017-0.004 0.037-0.007 0.057-0.007 0.052 0 0.101 0.017 0.14 0.046l-0.001-0 0.277-0.032c0.186-0.023 0.348 0 0.399 0.221s-0.066 0.353-0.249 0.417c-0.288 0.108-0.641 0.21-1.004 0.287l-0.052 0.009c-0.476 0.091-1.023 0.143-1.582 0.143-0.098 0-0.196-0.002-0.294-0.005l0.014 0h-0.085c-0.092-0.050-0.196 0.004-0.289-0.036-1.315-0.162-2.519-0.636-3.662-1.285-0.41-0.278-0.819-0.559-1.234-0.832-0.146-0.099-0.262-0.233-0.338-0.39l-0.003-0.006c-0.255-0.49-0.566-0.931-1.054-1.218-0.426-0.328-0.922-0.426-1.474-0.451 0.742-1.065 1.466-2.107 2.189-3.151 0.094 0.023 0.085 0.109 0.115 0.165q0.485 0.99 1.547 0.681c0.653-0.188 1.134-0.602 1.533-1.134 0.050-0.066 0.067-0.163 0.164-0.189 0.065 0.016 0.121 0.042 0.172 0.076l-0.002-0.001c0.766 0.511 1.515 1.044 2.268 1.574 0.236 0.17 0.238 0.223 0.072 0.455-0.286 0.399-0.567 0.802-0.836 1.213-0.051 0.071-0.083 0.157-0.171 0.19z"></path>
<path fill="#fff" style="fill: var(--color1, #fff)" d="M19.922 17.070c0.359-0.346 0.701-0.706 0.95-1.143 0.035-0.054 0.053-0.118 0.085-0.17 0.151-0.256 0.256-0.556 0.294-0.877l0.001-0.011c0.009-0.085 0.065-0.092 0.127-0.11 1.977-0.575 3.481-1.838 4.824-3.329 0.386-0.429 0.734-0.907 1.031-1.418l0.022-0.041c0.048-0.085 0.078-0.139 0.188-0.066q0.945 0.626 1.899 1.239c0.043 0.027 0.078 0.049 0.078 0.102-0.695 1.448-1.703 2.64-2.913 3.677-0.32 0.273-0.658 0.524-0.989 0.784-0.027 0.101-0.115 0.149-0.191 0.198-1.171 0.756-2.407 1.355-3.803 1.571-0.165 0.026-0.327-0.050-0.487 0.012l-0.17 0.008c-0.12 0.016-0.258 0.025-0.399 0.025s-0.279-0.009-0.415-0.027l0.016 0.002-0.126-0.007c-0.125-0.058-0.269 0.026-0.393-0.049 0.037-0.114 0.124-0.202 0.233-0.241l0.003-0.001c0.042-0.046 0.085-0.089 0.132-0.128l0.002-0.002z"></path>
<path fill="#fff" style="fill: var(--color1, #fff)" d="M22.931 6.973c0.835 0.544 1.667 1.092 2.506 1.631 0.181 0.117 0.336 0.274 0.548 0.341 0.239 0.159 0.473 0.33 0.721 0.474 0.143 0.085 0.152 0.159 0.072 0.292-0.433 0.705-0.912 1.315-1.453 1.866l0.001-0.001c-1.009 1.031-2.129 1.902-3.482 2.452-0.108 0.043-0.219 0.085-0.33 0.118-0.065 0.022-0.132 0.037-0.201 0.055-0.041-0.182-0.034-0.364-0.102-0.531-0.129-0.19-0.153-0.419-0.243-0.625-0.325-0.751-0.822-1.371-1.425-1.914-0.185-0.166-0.391-0.308-0.547-0.506-0.382-0.324-0.819-0.564-1.262-0.793-0.2-0.104-0.404-0.199-0.629-0.31 0.341-0.488 0.671-0.97 1.009-1.448q0.961-1.354 1.983-2.671c0.106-0.138 0.176-0.136 0.315-0.046 0.834 0.545 1.678 1.079 2.518 1.617z"></path>
<path fill="#f7f8f6" style="fill: var(--color3, #f7f8f6)" d="M15.509 17.491q-0.759 1.107-1.519 2.214c-0.19 0.277-0.388 0.547-0.574 0.826-0.063 0.095-0.106 0.133-0.215 0.055q-0.881-0.638-1.774-1.26c-0.104-0.072-0.085-0.118-0.024-0.203 0.266-0.384 0.525-0.772 0.786-1.16q0.795-1.126 1.589-2.252 0.846-1.203 1.69-2.41c0.092 0.085 0.081 0.199 0.081 0.307 0 1.171 0 2.343 0.004 3.515 0 0.128-0.065 0.242-0.043 0.368z"></path>
<path fill="#fffffc" style="fill: var(--color4, #fffffc)" d="M15.509 17.491c-0.067-0.085-0.037-0.181-0.037-0.272q-0.005-1.959-0.005-3.917c0.337-0.542 0.662-1.003 1.011-1.443l-0.025 0.032c0.124 0.074 0.268 0.134 0.42 0.173l0.011 0.002c0.545 0.177 0.996 0.516 1.31 0.959l0.005 0.008c0.067 0.095 0.141 0.186 0.214 0.278-0.286 0.511-0.65 0.966-0.979 1.448-0.573 0.841-1.159 1.673-1.742 2.508-0.055 0.079-0.122 0.15-0.184 0.225z"></path>
<path fill="#fff" style="fill: var(--color1, #fff)" d="M18.413 13.311c-0.228 0-0.244-0.227-0.341-0.347-0.373-0.479-0.867-0.747-1.431-0.91-0.095-0.028-0.186-0.038-0.192-0.162 0.287-0.511 0.672-0.961 0.979-1.46 0.064-0.104 0.122-0.079 0.209-0.035 0.353 0.18 0.669 0.417 1.006 0.623 0.255 0.218 0.523 0.412 0.756 0.652 0.038 0.025 0.062 0.067 0.062 0.115 0 0.039-0.017 0.075-0.043 0.1l-0 0c-0.337 0.472-0.67 0.95-1.005 1.426z"></path>
<path fill="#fff" style="fill: var(--color1, #fff)" d="M2.47 8.331c0 0.469-0.004 0.937-0.011 1.409 0 0.101 0.033 0.136 0.135 0.136q1.107-0.005 2.207 0c0.101 0 0.147-0.035 0.137-0.137-0.001-0.011-0.001-0.023-0.001-0.035s0-0.025 0.001-0.037l-0 0.002v-6.53c-0.002-0.043-0.006-0.083-0.013-0.122l0.001 0.006c0-0.524 0.014-1.047 0.009-1.571 0-0.163 0.044-0.214 0.21-0.212 0.673 0.009 1.346 0.012 2.019 0 0.196 0 0.229 0.065 0.229 0.241-0.005 2.708 0 5.416-0.008 8.124 0 0.205 0.037 0.283 0.264 0.277q0.986-0.026 1.972 0c0.222 0.006 0.25-0.070 0.25-0.264-0.006-3.107 0-6.217-0.009-9.323 0-0.237 0.054-0.3 0.293-0.293 0.649 0.018 1.299 0.011 1.948 0 0.17 0 0.227 0.045 0.227 0.223q-0.007 4.79 0 9.581c-0.010 0.397-0.087 0.773-0.219 1.121l0.008-0.023c-0.278 0.525-0.695 0.944-1.204 1.214l-0.016 0.008c-0.506 0.195-1.033 0.215-1.568 0.213q-3.23-0.011-6.46 0c-0.48 0-0.951-0.031-1.405-0.2-0.446-0.242-0.836-0.542-1.107-0.986-0.228-0.376-0.362-0.831-0.362-1.317 0-0.016 0-0.032 0-0.048l-0 0.002q0.002-4.777 0.002-9.552c0-0.193 0.061-0.237 0.242-0.237 0.664 0.009 1.329 0.011 1.994 0 0.188 0 0.233 0.054 0.233 0.236q-0.009 3.917 0 7.835c-0.006 0.089 0 0.175 0 0.261z"></path>
</symbol>
<symbol id="icon-arrow" viewBox="0 0 32 32">
<path fill="#fff" d="M6.133 28l12.267-12-12.267-12.267 3.733-3.733 16 16-16 16z"></path>
</symbol>
</defs>
</svg>
